{
	"asset":{
		"generator":"Khronos glTF Blender I/O v3.5.30",
		"version":"2.0"
	},
	"scene":0,
	"scenes":[
		{
			"name":"Scene",
			"nodes":[
				0,
				1
			]
		}
	],
	"nodes":[
		{
			"mesh":0,
			"name":"wels",
			"rotation":[
				0.7071068286895752,
				0,
				0,
				0.7071068286895752
			],
			"scale":[
				0.3900023102760315,
				0.09998348355293274,
				0.3900023102760315
			]
		},
		{
			"mesh":1,
			"name":"the car",
			"rotation":[
				0,
				0,
				0.7071068286895752,
				0.7071068286895752
			],
			"translation":[
				0.4164062738418579,
				0.8977925181388855,
				0
			]
		}
	],
	"materials":[
		{
			"alphaMode":"BLEND",
			"doubleSided":true,
			"name":"Material.001",
			"pbrMetallicRoughness":{
				"baseColorTexture":{
					"index":0
				},
				"metallicFactor":0,
				"roughnessFactor":0.5
			}
		},
		{
			"alphaMode":"BLEND",
			"doubleSided":true,
			"name":"Material.005",
			"pbrMetallicRoughness":{
				"baseColorTexture":{
					"index":1
				},
				"metallicFactor":0,
				"roughnessFactor":0.5
			}
		},
		{
			"alphaMode":"BLEND",
			"doubleSided":true,
			"name":"Material.002",
			"pbrMetallicRoughness":{
				"baseColorTexture":{
					"index":2
				},
				"metallicFactor":0,
				"roughnessFactor":0.5
			}
		}
	],
	"meshes":[
		{
			"name":"Cylinder.001",
			"primitives":[
				{
					"attributes":{
						"POSITION":0,
						"TEXCOORD_0":1,
						"NORMAL":2
					},
					"indices":3,
					"material":0
				}
			]
		},
		{
			"name":"Plane.003",
			"primitives":[
				{
					"attributes":{
						"COLOR_0":4,
						"POSITION":5,
						"TEXCOORD_0":6,
						"NORMAL":7
					},
					"indices":8,
					"material":1
				},
				{
					"attributes":{
						"COLOR_0":9,
						"POSITION":10,
						"TEXCOORD_0":11,
						"NORMAL":12
					},
					"indices":13,
					"material":2
				}
			]
		}
	],
	"textures":[
		{
			"sampler":0,
			"source":0
		},
		{
			"sampler":0,
			"source":1
		},
		{
			"sampler":0,
			"source":1
		}
	],
	"images":[
		{
			"bufferView":4,
			"mimeType":"image/png",
			"name":"wheels.tif-wheels.tif"
		},
		{
			"bufferView":10,
			"mimeType":"image/png",
			"name":"126col.tif-126col.tif"
		}
	],
	"accessors":[
		{
			"bufferView":0,
			"componentType":5126,
			"count":1920,
			"max":[
				4.179173946380615,
				9.976118087768555,
				2.5673365592956543
			],
			"min":[
				-4.768636226654053,
				-9.976118087768555,
				0.5673363208770752
			],
			"type":"VEC3"
		},
		{
			"bufferView":1,
			"componentType":5126,
			"count":1920,
			"type":"VEC2"
		},
		{
			"bufferView":2,
			"componentType":5126,
			"count":1920,
			"type":"VEC3"
		},
		{
			"bufferView":3,
			"componentType":5123,
			"count":3792,
			"type":"SCALAR"
		},
		{
			"bufferView":5,
			"componentType":5123,
			"count":2579,
			"normalized":true,
			"type":"VEC4"
		},
		{
			"bufferView":6,
			"componentType":5126,
			"count":2579,
			"max":[
				0,
				2.715935230255127,
				1.0301120281219482
			],
			"min":[
				-1.601353406906128,
				-1.8650189638137817,
				-1.0301120281219482
			],
			"type":"VEC3"
		},
		{
			"bufferView":7,
			"componentType":5126,
			"count":2579,
			"type":"VEC2"
		},
		{
			"bufferView":8,
			"componentType":5126,
			"count":2579,
			"type":"VEC3"
		},
		{
			"bufferView":9,
			"componentType":5123,
			"count":4680,
			"type":"SCALAR"
		},
		{
			"bufferView":11,
			"componentType":5123,
			"count":340,
			"normalized":true,
			"type":"VEC4"
		},
		{
			"bufferView":12,
			"componentType":5126,
			"count":340,
			"max":[
				-0.45007458329200745,
				1.1480416059494019,
				1.1293129920959473
			],
			"min":[
				-0.64483642578125,
				0.9806610345840454,
				-1.129312515258789
			],
			"type":"VEC3"
		},
		{
			"bufferView":13,
			"componentType":5126,
			"count":340,
			"type":"VEC2"
		},
		{
			"bufferView":14,
			"componentType":5126,
			"count":340,
			"type":"VEC3"
		},
		{
			"bufferView":15,
			"componentType":5123,
			"count":576,
			"type":"SCALAR"
		}
	],
	"bufferViews":[
		{
			"buffer":0,
			"byteLength":23040,
			"byteOffset":0,
			"target":34962
		},
		{
			"buffer":0,
			"byteLength":15360,
			"byteOffset":23040,
			"target":34962
		},
		{
			"buffer":0,
			"byteLength":23040,
			"byteOffset":38400,
			"target":34962
		},
		{
			"buffer":0,
			"byteLength":7584,
			"byteOffset":61440,
			"target":34963
		},
		{
			"buffer":0,
			"byteLength":703772,
			"byteOffset":69024
		},
		{
			"buffer":0,
			"byteLength":20632,
			"byteOffset":772796,
			"target":34962
		},
		{
			"buffer":0,
			"byteLength":30948,
			"byteOffset":793428,
			"target":34962
		},
		{
			"buffer":0,
			"byteLength":20632,
			"byteOffset":824376,
			"target":34962
		},
		{
			"buffer":0,
			"byteLength":30948,
			"byteOffset":845008,
			"target":34962
		},
		{
			"buffer":0,
			"byteLength":9360,
			"byteOffset":875956,
			"target":34963
		},
		{
			"buffer":0,
			"byteLength":319684,
			"byteOffset":885316
		},
		{
			"buffer":0,
			"byteLength":2720,
			"byteOffset":1205000,
			"target":34962
		},
		{
			"buffer":0,
			"byteLength":4080,
			"byteOffset":1207720,
			"target":34962
		},
		{
			"buffer":0,
			"byteLength":2720,
			"byteOffset":1211800,
			"target":34962
		},
		{
			"buffer":0,
			"byteLength":4080,
			"byteOffset":1214520,
			"target":34962
		},
		{
			"buffer":0,
			"byteLength":1152,
			"byteOffset":1218600,
			"target":34963
		}
	],
	"samplers":[
		{
			"magFilter":9729,
			"minFilter":9987
		}
	],
	"buffers":[
		{
			"byteLength":1219752,
			"uri":"data:application/octet-stream;base64,"
		}
	]
}
